<svg width="30" height="30" viewBox="0 0 30 30" fill="none" xmlns="http://www.w3.org/2000/svg">
<path d="M3.5918 14.0625H25.8678V26.25C25.8678 27.2855 25.1554 28.125 24.2766 28.125H5.18294C4.30418 28.125 3.5918 27.2855 3.5918 26.25V14.0625Z" fill="#8C5543"/>
<path d="M10.8315 8.4375H5.18294C4.30418 8.4375 3.5918 9.27697 3.5918 10.3125V14.0625C3.5918 16.1336 5.01655 17.8125 6.77408 17.8125H22.6855C24.443 17.8125 25.8678 16.1336 25.8678 14.0625V10.3125C25.8678 9.27697 25.1554 8.4375 24.2766 8.4375H18.6281C18.2595 6.2979 16.6542 4.6875 14.7298 4.6875C12.8053 4.6875 11.2001 6.2979 10.8315 8.4375ZM12.4789 8.4375C12.8065 7.34513 13.6906 6.5625 14.7298 6.5625C15.769 6.5625 16.653 7.34513 16.9807 8.4375H12.4789Z" fill="#6D4534"/>
<path d="M12.3418 17.8125L14.7285 16.875L17.1152 17.8125V19.6875C17.1152 20.2053 16.759 20.625 16.3196 20.625H13.1374C12.698 20.625 12.3418 20.2053 12.3418 19.6875V17.8125Z" fill="#D3883E"/>
<path d="M12.3418 16.875C12.3418 16.3572 12.698 15.9375 13.1374 15.9375H16.3196C16.759 15.9375 17.1152 16.3572 17.1152 16.875V17.8125H12.3418V16.875Z" fill="#E19747"/>
</svg>
