<svg width="30" height="30" viewBox="0 0 30 30" fill="none" xmlns="http://www.w3.org/2000/svg">
<path d="M16.3203 4.21875C16.3203 3.4421 16.8546 2.8125 17.5137 2.8125H20.696C21.355 2.8125 21.8893 3.4421 21.8893 4.21875V4.6875L19.1048 5.15625L16.3203 4.6875V4.21875Z" fill="#00D26A"/>
<path d="M3.5918 7.5C3.5918 5.9467 4.66036 4.6875 5.97851 4.6875H23.4811C24.7992 4.6875 25.8678 5.9467 25.8678 7.5V11.25H3.5918V7.5Z" fill="#FFB02E"/>
<path d="M12.3418 7.96875C12.3418 7.1921 12.8761 6.5625 13.5352 6.5625H16.7174C17.3765 6.5625 17.9108 7.1921 17.9108 7.96875V8.4375L15.1263 9.375L12.3418 8.4375V7.96875Z" fill="#00A6ED"/>
<path d="M3.5918 11.25C3.5918 9.6967 4.66036 8.4375 5.97851 8.4375H23.4811C24.7992 8.4375 25.8678 9.6967 25.8678 11.25V15.9375H3.5918V11.25Z" fill="#F9C23C"/>
<path d="M7.56836 11.7188C7.56836 10.9421 8.10264 10.3125 8.76172 10.3125H11.944C12.6031 10.3125 13.1374 10.9421 13.1374 11.7188V12.1875L10.3529 13.125L7.56836 12.1875V11.7188Z" fill="#F8312F"/>
<path d="M3.5918 15C3.5918 13.4467 4.66036 12.1875 5.97851 12.1875H23.4811C24.7992 12.1875 25.8678 13.4467 25.8678 15V25.3125C25.8678 26.8658 24.7992 28.125 23.4811 28.125H5.97851C4.66036 28.125 3.5918 26.8658 3.5918 25.3125V15Z" fill="#FCD53F"/>
</svg>
