<svg width="35" height="35" viewBox="0 0 35 35" fill="none" xmlns="http://www.w3.org/2000/svg">
<path d="M15.5698 8.89414C15.5698 9.9987 14.6744 10.8941 13.5698 10.8941H12.4863C11.3818 10.8941 10.4863 9.9987 10.4863 8.89414V7.81064C10.4863 6.70607 11.3818 5.81064 12.4863 5.81064H13.5698C14.6744 5.81064 15.5698 6.70607 15.5698 7.81064V8.89414ZM15.5698 18.0413C15.5698 19.1459 14.6744 20.0413 13.5698 20.0413H12.4863C11.3818 20.0413 10.4863 19.1459 10.4863 18.0413V16.9578C10.4863 15.8532 11.3818 14.9578 12.4863 14.9578H13.5698C14.6744 14.9578 15.5698 15.8532 15.5698 16.9578V18.0413ZM15.5698 27.1875C15.5698 28.2921 14.6744 29.1875 13.5698 29.1875H12.4863C11.3818 29.1875 10.4863 28.2921 10.4863 27.1875V26.104C10.4863 24.9994 11.3818 24.104 12.4863 24.104H13.5698C14.6744 24.104 15.5698 24.9994 15.5698 26.104V27.1875Z" fill="#C7C7CC"/>
<path d="M24.5132 8.89414C24.5132 9.9987 23.6177 10.8941 22.5132 10.8941H21.4297C20.3251 10.8941 19.4297 9.9987 19.4297 8.89414V7.81064C19.4297 6.70607 20.3251 5.81064 21.4297 5.81064H22.5132C23.6177 5.81064 24.5132 6.70607 24.5132 7.81064V8.89414ZM24.5132 18.0413C24.5132 19.1459 23.6177 20.0413 22.5132 20.0413H21.4297C20.3251 20.0413 19.4297 19.1459 19.4297 18.0413V16.9578C19.4297 15.8532 20.3251 14.9578 21.4297 14.9578H22.5132C23.6177 14.9578 24.5132 15.8532 24.5132 16.9578V18.0413ZM24.5132 27.1875C24.5132 28.2921 23.6177 29.1875 22.5132 29.1875H21.4297C20.3251 29.1875 19.4297 28.2921 19.4297 27.1875V26.104C19.4297 24.9994 20.3251 24.104 21.4297 24.104H22.5132C23.6177 24.104 24.5132 24.9994 24.5132 26.104V27.1875Z" fill="#C7C7CC"/>
</svg>
