<svg width="35" height="35" viewBox="0 0 35 35" fill="none" xmlns="http://www.w3.org/2000/svg">
<path d="M17.4996 29.4016C10.9196 29.4016 5.59961 24.0816 5.59961 17.5016C5.59961 10.9216 10.9196 5.60156 17.4996 5.60156C24.0796 5.60156 29.3996 10.9216 29.3996 17.5016C29.3996 24.0816 24.0796 29.4016 17.4996 29.4016ZM17.4996 7.00156C11.6896 7.00156 6.99961 11.6916 6.99961 17.5016C6.99961 23.3116 11.6896 28.0016 17.4996 28.0016C23.3096 28.0016 27.9996 23.3116 27.9996 17.5016C27.9996 11.6916 23.3096 7.00156 17.4996 7.00156Z" fill="#C7C7CC" stroke="#C7C7CC" stroke-width="2"/>
<path d="M11.1992 17.5008C11.1992 17.1142 11.5126 16.8008 11.8992 16.8008H23.0992C23.4858 16.8008 23.7992 17.1142 23.7992 17.5008C23.7992 17.8874 23.4858 18.2008 23.0992 18.2008H11.8992C11.5126 18.2008 11.1992 17.8874 11.1992 17.5008Z" fill="#C7C7CC" stroke="#C7C7CC" stroke-width="2"/>
</svg>
