<svg width="31" height="31" viewBox="0 0 31 31" fill="none" xmlns="http://www.w3.org/2000/svg">
<path d="M22.0059 15.5117C22.7518 15.5117 23.4672 15.808 23.9946 16.3355C24.522 16.8629 24.8184 17.5783 24.8184 18.3242V19.2617C24.8184 22.9573 21.3309 26.7617 15.4434 26.7617C9.55586 26.7617 6.06836 22.9573 6.06836 19.2617V18.3242C6.06836 17.5783 6.36468 16.8629 6.89212 16.3355C7.41957 15.808 8.13494 15.5117 8.88086 15.5117H22.0059ZM15.4434 3.32422C16.8109 3.32422 18.1224 3.86747 19.0894 4.83445C20.0564 5.80143 20.5996 7.11295 20.5996 8.48047C20.5996 9.84799 20.0564 11.1595 19.0894 12.1265C18.1224 13.0935 16.8109 13.6367 15.4434 13.6367C14.0758 13.6367 12.7643 13.0935 11.7973 12.1265C10.8304 11.1595 10.2871 9.84799 10.2871 8.48047C10.2871 7.11295 10.8304 5.80143 11.7973 4.83445C12.7643 3.86747 14.0758 3.32422 15.4434 3.32422Z" fill="url(#paint0_linear_1176_1876)"/>
<defs>
<linearGradient id="paint0_linear_1176_1876" x1="15.4434" y1="3.32422" x2="15.4434" y2="26.7617" gradientUnits="userSpaceOnUse">
<stop/>
<stop offset="1" stop-color="#666666"/>
</linearGradient>
</defs>
</svg>
