<svg width="51" height="51" viewBox="0 0 51 51" fill="none" xmlns="http://www.w3.org/2000/svg">
<path d="M32.5459 29.3965H30.8872L30.2993 28.8296C32.3569 26.436 33.5957 23.3286 33.5957 19.9482C33.5957 12.4106 27.4858 6.30078 19.9482 6.30078C12.4106 6.30078 6.30078 12.4106 6.30078 19.9482C6.30078 27.4858 12.4106 33.5957 19.9482 33.5957C23.3286 33.5957 26.436 32.3569 28.8296 30.2993L29.3965 30.8872V32.5459L39.8945 43.0229L43.0229 39.8945L32.5459 29.3965V29.3965ZM19.9482 29.3965C14.7202 29.3965 10.5 25.1763 10.5 19.9482C10.5 14.7202 14.7202 10.5 19.9482 10.5C25.1763 10.5 29.3965 14.7202 29.3965 19.9482C29.3965 25.1763 25.1763 29.3965 19.9482 29.3965Z" fill="#656F77"/>
</svg>
