<svg width="50" height="50" viewBox="0 0 50 50" fill="none" xmlns="http://www.w3.org/2000/svg">
<path d="M6.25 12.5013H10.4167M10.4167 12.5013H43.75M10.4167 12.5013V41.668C10.4167 42.773 10.8557 43.8328 11.6371 44.6142C12.4185 45.3956 13.4783 45.8346 14.5833 45.8346H35.4167C36.5217 45.8346 37.5815 45.3956 38.3629 44.6142C39.1443 43.8328 39.5833 42.773 39.5833 41.668V12.5013M16.6667 12.5013V8.33464C16.6667 7.22957 17.1057 6.16976 17.8871 5.38836C18.6685 4.60696 19.7283 4.16797 20.8333 4.16797H29.1667C30.2717 4.16797 31.3315 4.60696 32.1129 5.38836C32.8943 6.16976 33.3333 7.22957 33.3333 8.33464V12.5013M20.8333 22.918V35.418M29.1667 22.918V35.418" stroke="#8E8E93" stroke-width="2" stroke-linecap="round" stroke-linejoin="round"/>
</svg>
